G04 #@! TF.GenerationSoftware,KiCad,Pcbnew,(6.0.0)*
G04 #@! TF.CreationDate,2022-01-02T21:04:18+02:00*
G04 #@! TF.ProjectId,inkkeys,696e6b6b-6579-4732-9e6b-696361645f70,rev?*
G04 #@! TF.SameCoordinates,Original*
G04 #@! TF.FileFunction,Soldermask,Top*
G04 #@! TF.FilePolarity,Negative*
%FSLAX46Y46*%
G04 Gerber Fmt 4.6, Leading zero omitted, Abs format (unit mm)*
G04 Created by KiCad (PCBNEW (6.0.0)) date 2022-01-02 21:04:18*
%MOMM*%
%LPD*%
G01*
G04 APERTURE LIST*
G04 Aperture macros list*
%AMHorizOval*
0 Thick line with rounded ends*
0 $1 width*
0 $2 $3 position (X,Y) of the first rounded end (center of the circle)*
0 $4 $5 position (X,Y) of the second rounded end (center of the circle)*
0 Add line between two ends*
20,1,$1,$2,$3,$4,$5,0*
0 Add two circle primitives to create the rounded ends*
1,1,$1,$2,$3*
1,1,$1,$4,$5*%
%AMRotRect*
0 Rectangle, with rotation*
0 The origin of the aperture is its center*
0 $1 length*
0 $2 width*
0 $3 Rotation angle, in degrees counterclockwise*
0 Add horizontal line*
21,1,$1,$2,0,0,$3*%
G04 Aperture macros list end*
%ADD10HorizOval,1.000000X0.200000X0.346410X-0.200000X-0.346410X0*%
%ADD11RotRect,1.000000X1.800000X150.000000*%
%ADD12HorizOval,1.000000X0.346410X0.200000X-0.346410X-0.200000X0*%
%ADD13RotRect,1.000000X1.800000X120.000000*%
%ADD14O,1.800000X1.000000*%
%ADD15R,1.800000X1.000000*%
%ADD16HorizOval,1.000000X-0.346410X0.200000X0.346410X-0.200000X0*%
%ADD17RotRect,1.000000X1.800000X60.000000*%
%ADD18HorizOval,1.000000X-0.200000X0.346410X0.200000X-0.346410X0*%
%ADD19RotRect,1.000000X1.800000X30.000000*%
%ADD20O,1.000000X1.800000*%
%ADD21R,1.000000X1.800000*%
%ADD22HorizOval,1.000000X-0.200000X-0.346410X0.200000X0.346410X0*%
%ADD23RotRect,1.000000X1.800000X330.000000*%
%ADD24HorizOval,1.000000X-0.346410X-0.200000X0.346410X0.200000X0*%
%ADD25RotRect,1.000000X1.800000X300.000000*%
%ADD26RotRect,1.000000X1.800000X240.000000*%
%ADD27RotRect,1.000000X1.800000X210.000000*%
%ADD28C,3.200000*%
%ADD29C,2.082800*%
%ADD30R,1.700000X1.700000*%
%ADD31O,1.700000X1.700000*%
%ADD32C,1.700000*%
%ADD33C,4.000000*%
%ADD34C,2.200000*%
%ADD35C,1.600000*%
%ADD36O,1.600000X1.600000*%
%ADD37C,2.000000*%
%ADD38R,3.200000X2.000000*%
%ADD39R,2.000000X2.000000*%
G04 APERTURE END LIST*
D10*
X96515891Y-135048594D03*
X97615743Y-135683594D03*
X98715596Y-136318594D03*
D11*
X99815448Y-136953594D03*
D12*
X103071406Y-140205891D03*
X103706406Y-141305743D03*
X104341406Y-142405596D03*
D13*
X104976406Y-143505448D03*
D14*
X106170000Y-147950000D03*
X106170000Y-149220000D03*
X106170000Y-150490000D03*
D15*
X106170000Y-151760000D03*
D16*
X104981406Y-156205891D03*
X104346406Y-157305743D03*
X103711406Y-158405596D03*
D17*
X103076406Y-159505448D03*
D18*
X99824109Y-162761406D03*
X98724257Y-163396406D03*
X97624404Y-164031406D03*
D19*
X96524552Y-164666406D03*
D20*
X92080000Y-165860000D03*
X90810000Y-165860000D03*
X89540000Y-165860000D03*
D21*
X88270000Y-165860000D03*
D22*
X83824109Y-164671406D03*
X82724257Y-164036406D03*
X81624404Y-163401406D03*
D23*
X80524552Y-162766406D03*
D24*
X77268594Y-159514109D03*
X76633594Y-158414257D03*
X75998594Y-157314404D03*
D25*
X75363594Y-156214552D03*
D14*
X74170000Y-151770000D03*
X74170000Y-150500000D03*
X74170000Y-149230000D03*
D15*
X74170000Y-147960000D03*
D16*
X75358594Y-143514109D03*
X75993594Y-142414257D03*
X76628594Y-141314404D03*
D26*
X77263594Y-140214552D03*
D18*
X80515891Y-136958594D03*
X81615743Y-136323594D03*
X82715596Y-135688594D03*
D27*
X83815448Y-135053594D03*
D20*
X88260000Y-133860000D03*
X89530000Y-133860000D03*
X90800000Y-133860000D03*
D21*
X92070000Y-133860000D03*
D28*
X115170000Y-45330000D03*
X65170000Y-45330000D03*
X74170000Y-166330000D03*
X115170000Y-135330000D03*
X106170000Y-166330000D03*
X65170000Y-135330000D03*
X73670000Y-123530000D03*
X106670000Y-123530000D03*
X73670000Y-39030000D03*
X106670000Y-39030000D03*
D29*
X82550000Y-39370000D03*
X82550000Y-41910000D03*
X82550000Y-44450000D03*
X82550000Y-46990000D03*
X82550000Y-49530000D03*
X82550000Y-52070000D03*
X82550000Y-54610000D03*
X82550000Y-57150000D03*
X82550000Y-59690000D03*
X82550000Y-62230000D03*
X82550000Y-64770000D03*
X82550000Y-67310000D03*
X97790000Y-67310000D03*
X97790000Y-64770000D03*
X97790000Y-62230000D03*
X97790000Y-59690000D03*
X97790000Y-57150000D03*
X97790000Y-54610000D03*
X97790000Y-52070000D03*
X97790000Y-49530000D03*
X97790000Y-46990000D03*
X97790000Y-44450000D03*
X97790000Y-41910000D03*
X97790000Y-39370000D03*
D30*
X81280000Y-77470000D03*
D31*
X83820000Y-77470000D03*
X86360000Y-77470000D03*
X88900000Y-77470000D03*
X91440000Y-77470000D03*
X93980000Y-77470000D03*
X96520000Y-77470000D03*
X99060000Y-77470000D03*
X73660000Y-50800000D03*
D30*
X73660000Y-53340000D03*
D32*
X57150000Y-58420000D03*
X67310000Y-58420000D03*
D33*
X62230000Y-58420000D03*
D34*
X66040000Y-60960000D03*
X59690000Y-63500000D03*
X59690000Y-81280000D03*
X66040000Y-78740000D03*
D33*
X62230000Y-76200000D03*
D32*
X67310000Y-76200000D03*
X57150000Y-76200000D03*
D34*
X59690000Y-99060000D03*
X66040000Y-96520000D03*
D33*
X62230000Y-93980000D03*
D32*
X67310000Y-93980000D03*
X57150000Y-93980000D03*
X57150000Y-111760000D03*
X67310000Y-111760000D03*
D33*
X62230000Y-111760000D03*
D34*
X66040000Y-114300000D03*
X59690000Y-116840000D03*
X115570000Y-63500000D03*
X121920000Y-60960000D03*
D33*
X118110000Y-58420000D03*
D32*
X123190000Y-58420000D03*
X113030000Y-58420000D03*
X113030000Y-76200000D03*
X123190000Y-76200000D03*
D33*
X118110000Y-76200000D03*
D34*
X121920000Y-78740000D03*
X115570000Y-81280000D03*
X115570000Y-99060000D03*
X121920000Y-96520000D03*
D33*
X118110000Y-93980000D03*
D32*
X123190000Y-93980000D03*
X113030000Y-93980000D03*
X113030000Y-111760000D03*
X123190000Y-111760000D03*
D33*
X118110000Y-111760000D03*
D34*
X121920000Y-114300000D03*
X115570000Y-116840000D03*
D35*
X88265000Y-111760000D03*
X88265000Y-116760000D03*
X92075000Y-116760000D03*
X92075000Y-111760000D03*
D36*
X95885000Y-106680000D03*
D35*
X95885000Y-116840000D03*
X84455000Y-116840000D03*
D36*
X84455000Y-106680000D03*
X99695000Y-116840000D03*
D35*
X99695000Y-106680000D03*
X80645000Y-106680000D03*
D36*
X80645000Y-116840000D03*
D37*
X97050000Y-152320000D03*
X97050000Y-147320000D03*
D38*
X90050000Y-155420000D03*
X90050000Y-144220000D03*
D37*
X82550000Y-152320000D03*
X82550000Y-149820000D03*
D39*
X82550000Y-147320000D03*
M02*
