M48
; DRILL file {KiCad (6.0.0)} date Sun Jan  2 21:03:39 2022
; FORMAT={-:-/ absolute / inch / decimal}
; #@! TF.CreationDate,2022-01-02T21:03:39+02:00
; #@! TF.GenerationSoftware,Kicad,Pcbnew,(6.0.0)
; #@! TF.FileFunction,NonPlated,1,2,NPTH
FMAT,2
INCH
; #@! TA.AperFunction,NonPlated,NPTH,ComponentDrill
T1C0.0669
; #@! TA.AperFunction,NonPlated,NPTH,ComponentDrill
T2C0.1260
; #@! TA.AperFunction,NonPlated,NPTH,ComponentDrill
T3C0.1575
%
G90
G05
T1
X2.25Y-2.3
X2.25Y-3.0
X2.25Y-3.7
X2.25Y-4.4
X2.65Y-2.3
X2.65Y-3.0
X2.65Y-3.7
X2.65Y-4.4
X4.45Y-2.3
X4.45Y-3.0
X4.45Y-3.7
X4.45Y-4.4
X4.85Y-2.3
X4.85Y-3.0
X4.85Y-3.7
X4.85Y-4.4
T2
X2.5657Y-1.7846
X2.5657Y-5.328
X2.9004Y-1.5366
X2.9004Y-4.8634
X2.9201Y-6.5484
X4.1799Y-6.5484
X4.1996Y-1.5366
X4.1996Y-4.8634
X4.5343Y-1.7846
X4.5343Y-5.328
T3
X2.45Y-2.3
X2.45Y-3.0
X2.45Y-3.7
X2.45Y-4.4
X4.65Y-2.3
X4.65Y-3.0
X4.65Y-3.7
X4.65Y-4.4
T0
M30
