M48
; DRILL file {KiCad (6.0.0)} date Sun Jan  2 21:03:39 2022
; FORMAT={-:-/ absolute / inch / decimal}
; #@! TF.CreationDate,2022-01-02T21:03:39+02:00
; #@! TF.GenerationSoftware,Kicad,Pcbnew,(6.0.0)
; #@! TF.FileFunction,Plated,1,2,PTH
FMAT,2
INCH
; #@! TA.AperFunction,Plated,PTH,ViaDrill
T1C0.0157
; #@! TA.AperFunction,Plated,PTH,ComponentDrill
T2C0.0315
; #@! TA.AperFunction,Plated,PTH,ComponentDrill
T3C0.0394
; #@! TA.AperFunction,Plated,PTH,ComponentDrill
T4C0.0400
; #@! TA.AperFunction,Plated,PTH,ComponentDrill
T5C0.0591
%
G90
G05
T1
X3.35Y-2.85
X3.55Y-2.9
X3.7Y-2.9
X3.725Y-1.875
X3.725Y-1.975
X3.725Y-2.075
X3.775Y-2.85
X4.1Y-2.75
T2
X2.9201Y-5.8252
X2.9201Y-5.8752
X2.9201Y-5.9252
X2.9201Y-5.9752
X2.9669Y-5.6502
X2.9671Y-6.1502
X2.9919Y-5.6069
X2.9921Y-6.1935
X3.0169Y-5.5636
X3.0171Y-6.2368
X3.0419Y-5.5203
X3.0421Y-6.2801
X3.1699Y-5.3921
X3.1703Y-6.4081
X3.175Y-4.2
X3.175Y-4.6
X3.2132Y-5.3671
X3.2136Y-6.4331
X3.2565Y-5.3421
X3.2569Y-6.4581
X3.2998Y-5.3171
X3.3002Y-6.4831
X3.325Y-4.2
X3.325Y-4.6
X3.4748Y-5.2701
X3.475Y-4.4
X3.475Y-4.5969
X3.4752Y-6.5299
X3.5248Y-5.2701
X3.5252Y-6.5299
X3.5748Y-5.2701
X3.5752Y-6.5299
X3.6248Y-5.2701
X3.625Y-4.4
X3.625Y-4.5969
X3.6252Y-6.5299
X3.775Y-4.2
X3.775Y-4.6
X3.7998Y-5.3169
X3.8002Y-6.4829
X3.8431Y-5.3419
X3.8435Y-6.4579
X3.8864Y-5.3669
X3.8868Y-6.4329
X3.925Y-4.2
X3.925Y-4.6
X3.9297Y-5.3919
X3.9301Y-6.4079
X4.0579Y-5.5199
X4.0581Y-6.2797
X4.0829Y-5.5632
X4.0831Y-6.2364
X4.1079Y-5.6065
X4.1081Y-6.1931
X4.1329Y-5.6498
X4.1331Y-6.1498
X4.1799Y-5.8248
X4.1799Y-5.8748
X4.1799Y-5.9248
X4.1799Y-5.9748
T3
X2.9Y-2.0
X2.9Y-2.1
X3.2Y-3.05
X3.25Y-5.8
X3.25Y-5.8984
X3.25Y-5.9969
X3.3Y-3.05
X3.4Y-3.05
X3.5Y-3.05
X3.6Y-3.05
X3.7Y-3.05
X3.8Y-3.05
X3.8209Y-5.8
X3.8209Y-5.9969
X3.9Y-3.05
T4
X3.25Y-1.55
X3.25Y-1.65
X3.25Y-1.75
X3.25Y-1.85
X3.25Y-1.95
X3.25Y-2.05
X3.25Y-2.15
X3.25Y-2.25
X3.25Y-2.35
X3.25Y-2.45
X3.25Y-2.55
X3.25Y-2.65
X3.85Y-1.55
X3.85Y-1.65
X3.85Y-1.75
X3.85Y-1.85
X3.85Y-1.95
X3.85Y-2.05
X3.85Y-2.15
X3.85Y-2.25
X3.85Y-2.35
X3.85Y-2.45
X3.85Y-2.55
X3.85Y-2.65
T5
X2.35Y-2.5
X2.35Y-3.2
X2.35Y-3.9
X2.35Y-4.6
X2.6Y-2.4
X2.6Y-3.1
X2.6Y-3.8
X2.6Y-4.5
X4.55Y-2.5
X4.55Y-3.2
X4.55Y-3.9
X4.55Y-4.6
X4.8Y-2.4
X4.8Y-3.1
X4.8Y-3.8
X4.8Y-4.5
T5
G00X3.5197Y-5.678
M15
G01X3.5709Y-5.678
M16
G05
G00X3.5197Y-6.1189
M15
G01X3.5709Y-6.1189
M16
G05
T0
M30
