G04 #@! TF.GenerationSoftware,KiCad,Pcbnew,(6.0.0)*
G04 #@! TF.CreationDate,2022-01-02T21:04:18+02:00*
G04 #@! TF.ProjectId,inkkeys,696e6b6b-6579-4732-9e6b-696361645f70,rev?*
G04 #@! TF.SameCoordinates,Original*
G04 #@! TF.FileFunction,Legend,Top*
G04 #@! TF.FilePolarity,Positive*
%FSLAX46Y46*%
G04 Gerber Fmt 4.6, Leading zero omitted, Abs format (unit mm)*
G04 Created by KiCad (PCBNEW (6.0.0)) date 2022-01-02 21:04:18*
%MOMM*%
%LPD*%
G01*
G04 APERTURE LIST*
%ADD10C,0.150000*%
%ADD11C,0.120000*%
G04 APERTURE END LIST*
D10*
X103734761Y-90042380D02*
X102401428Y-90042380D01*
X101734761Y-90042380D02*
X101830000Y-90137619D01*
X101925238Y-90042380D01*
X101830000Y-89947142D01*
X101734761Y-90042380D01*
X101925238Y-90042380D01*
X102401428Y-89090000D02*
X103734761Y-89090000D01*
X102591904Y-89090000D02*
X102496666Y-88994761D01*
X102401428Y-88804285D01*
X102401428Y-88518571D01*
X102496666Y-88328095D01*
X102687142Y-88232857D01*
X103734761Y-88232857D01*
X103734761Y-87280476D02*
X101734761Y-87280476D01*
X102972857Y-87090000D02*
X103734761Y-86518571D01*
X102401428Y-86518571D02*
X103163333Y-87280476D01*
X103734761Y-85661428D02*
X101734761Y-85661428D01*
X102972857Y-85470952D02*
X103734761Y-84899523D01*
X102401428Y-84899523D02*
X103163333Y-85661428D01*
X103639523Y-83280476D02*
X103734761Y-83470952D01*
X103734761Y-83851904D01*
X103639523Y-84042380D01*
X103449047Y-84137619D01*
X102687142Y-84137619D01*
X102496666Y-84042380D01*
X102401428Y-83851904D01*
X102401428Y-83470952D01*
X102496666Y-83280476D01*
X102687142Y-83185238D01*
X102877619Y-83185238D01*
X103068095Y-84137619D01*
X102401428Y-82518571D02*
X103734761Y-82042380D01*
X102401428Y-81566190D02*
X103734761Y-82042380D01*
X104210952Y-82232857D01*
X104306190Y-82328095D01*
X104401428Y-82518571D01*
X103639523Y-80899523D02*
X103734761Y-80709047D01*
X103734761Y-80328095D01*
X103639523Y-80137619D01*
X103449047Y-80042380D01*
X103353809Y-80042380D01*
X103163333Y-80137619D01*
X103068095Y-80328095D01*
X103068095Y-80613809D01*
X102972857Y-80804285D01*
X102782380Y-80899523D01*
X102687142Y-80899523D01*
X102496666Y-80804285D01*
X102401428Y-80613809D01*
X102401428Y-80328095D01*
X102496666Y-80137619D01*
X106954761Y-118090000D02*
X104954761Y-118090000D01*
X106954761Y-117232857D02*
X105907142Y-117232857D01*
X105716666Y-117328095D01*
X105621428Y-117518571D01*
X105621428Y-117804285D01*
X105716666Y-117994761D01*
X105811904Y-118090000D01*
X105621428Y-116566190D02*
X105621428Y-115804285D01*
X104954761Y-116280476D02*
X106669047Y-116280476D01*
X106859523Y-116185238D01*
X106954761Y-115994761D01*
X106954761Y-115804285D01*
X105621428Y-115423333D02*
X105621428Y-114661428D01*
X104954761Y-115137619D02*
X106669047Y-115137619D01*
X106859523Y-115042380D01*
X106954761Y-114851904D01*
X106954761Y-114661428D01*
X105621428Y-113994761D02*
X107621428Y-113994761D01*
X105716666Y-113994761D02*
X105621428Y-113804285D01*
X105621428Y-113423333D01*
X105716666Y-113232857D01*
X105811904Y-113137619D01*
X106002380Y-113042380D01*
X106573809Y-113042380D01*
X106764285Y-113137619D01*
X106859523Y-113232857D01*
X106954761Y-113423333D01*
X106954761Y-113804285D01*
X106859523Y-113994761D01*
X106859523Y-112280476D02*
X106954761Y-112090000D01*
X106954761Y-111709047D01*
X106859523Y-111518571D01*
X106669047Y-111423333D01*
X106573809Y-111423333D01*
X106383333Y-111518571D01*
X106288095Y-111709047D01*
X106288095Y-111994761D01*
X106192857Y-112185238D01*
X106002380Y-112280476D01*
X105907142Y-112280476D01*
X105716666Y-112185238D01*
X105621428Y-111994761D01*
X105621428Y-111709047D01*
X105716666Y-111518571D01*
X106764285Y-110566190D02*
X106859523Y-110470952D01*
X106954761Y-110566190D01*
X106859523Y-110661428D01*
X106764285Y-110566190D01*
X106954761Y-110566190D01*
X105716666Y-110566190D02*
X105811904Y-110470952D01*
X105907142Y-110566190D01*
X105811904Y-110661428D01*
X105716666Y-110566190D01*
X105907142Y-110566190D01*
X104859523Y-108185238D02*
X107430952Y-109899523D01*
X104859523Y-106090000D02*
X107430952Y-107804285D01*
X105621428Y-105709047D02*
X105621428Y-104947142D01*
X104954761Y-105423333D02*
X106669047Y-105423333D01*
X106859523Y-105328095D01*
X106954761Y-105137619D01*
X106954761Y-104947142D01*
X106954761Y-104280476D02*
X104954761Y-104280476D01*
X106954761Y-103423333D02*
X105907142Y-103423333D01*
X105716666Y-103518571D01*
X105621428Y-103709047D01*
X105621428Y-103994761D01*
X105716666Y-104185238D01*
X105811904Y-104280476D01*
X106859523Y-101709047D02*
X106954761Y-101899523D01*
X106954761Y-102280476D01*
X106859523Y-102470952D01*
X106669047Y-102566190D01*
X105907142Y-102566190D01*
X105716666Y-102470952D01*
X105621428Y-102280476D01*
X105621428Y-101899523D01*
X105716666Y-101709047D01*
X105907142Y-101613809D01*
X106097619Y-101613809D01*
X106288095Y-102566190D01*
X106954761Y-100756666D02*
X105621428Y-100756666D01*
X106002380Y-100756666D02*
X105811904Y-100661428D01*
X105716666Y-100566190D01*
X105621428Y-100375714D01*
X105621428Y-100185238D01*
X106859523Y-98756666D02*
X106954761Y-98947142D01*
X106954761Y-99328095D01*
X106859523Y-99518571D01*
X106669047Y-99613809D01*
X105907142Y-99613809D01*
X105716666Y-99518571D01*
X105621428Y-99328095D01*
X105621428Y-98947142D01*
X105716666Y-98756666D01*
X105907142Y-98661428D01*
X106097619Y-98661428D01*
X106288095Y-99613809D01*
X106764285Y-97804285D02*
X106859523Y-97709047D01*
X106954761Y-97804285D01*
X106859523Y-97899523D01*
X106764285Y-97804285D01*
X106954761Y-97804285D01*
X106954761Y-96566190D02*
X106859523Y-96756666D01*
X106764285Y-96851904D01*
X106573809Y-96947142D01*
X106002380Y-96947142D01*
X105811904Y-96851904D01*
X105716666Y-96756666D01*
X105621428Y-96566190D01*
X105621428Y-96280476D01*
X105716666Y-96090000D01*
X105811904Y-95994761D01*
X106002380Y-95899523D01*
X106573809Y-95899523D01*
X106764285Y-95994761D01*
X106859523Y-96090000D01*
X106954761Y-96280476D01*
X106954761Y-96566190D01*
X105621428Y-94185238D02*
X106954761Y-94185238D01*
X105621428Y-95042380D02*
X106669047Y-95042380D01*
X106859523Y-94947142D01*
X106954761Y-94756666D01*
X106954761Y-94470952D01*
X106859523Y-94280476D01*
X106764285Y-94185238D01*
X105621428Y-92375714D02*
X107240476Y-92375714D01*
X107430952Y-92470952D01*
X107526190Y-92566190D01*
X107621428Y-92756666D01*
X107621428Y-93042380D01*
X107526190Y-93232857D01*
X106859523Y-92375714D02*
X106954761Y-92566190D01*
X106954761Y-92947142D01*
X106859523Y-93137619D01*
X106764285Y-93232857D01*
X106573809Y-93328095D01*
X106002380Y-93328095D01*
X105811904Y-93232857D01*
X105716666Y-93137619D01*
X105621428Y-92947142D01*
X105621428Y-92566190D01*
X105716666Y-92375714D01*
X106954761Y-91423333D02*
X104954761Y-91423333D01*
X106954761Y-90566190D02*
X105907142Y-90566190D01*
X105716666Y-90661428D01*
X105621428Y-90851904D01*
X105621428Y-91137619D01*
X105716666Y-91328095D01*
X105811904Y-91423333D01*
X105621428Y-89899523D02*
X105621428Y-89137619D01*
X104954761Y-89613809D02*
X106669047Y-89613809D01*
X106859523Y-89518571D01*
X106954761Y-89328095D01*
X106954761Y-89137619D01*
X106954761Y-87613809D02*
X105907142Y-87613809D01*
X105716666Y-87709047D01*
X105621428Y-87899523D01*
X105621428Y-88280476D01*
X105716666Y-88470952D01*
X106859523Y-87613809D02*
X106954761Y-87804285D01*
X106954761Y-88280476D01*
X106859523Y-88470952D01*
X106669047Y-88566190D01*
X106478571Y-88566190D01*
X106288095Y-88470952D01*
X106192857Y-88280476D01*
X106192857Y-87804285D01*
X106097619Y-87613809D01*
X106764285Y-86661428D02*
X106859523Y-86566190D01*
X106954761Y-86661428D01*
X106859523Y-86756666D01*
X106764285Y-86661428D01*
X106954761Y-86661428D01*
X106954761Y-85709047D02*
X104954761Y-85709047D01*
X105716666Y-85709047D02*
X105621428Y-85518571D01*
X105621428Y-85137619D01*
X105716666Y-84947142D01*
X105811904Y-84851904D01*
X106002380Y-84756666D01*
X106573809Y-84756666D01*
X106764285Y-84851904D01*
X106859523Y-84947142D01*
X106954761Y-85137619D01*
X106954761Y-85518571D01*
X106859523Y-85709047D01*
X106859523Y-83137619D02*
X106954761Y-83328095D01*
X106954761Y-83709047D01*
X106859523Y-83899523D01*
X106669047Y-83994761D01*
X105907142Y-83994761D01*
X105716666Y-83899523D01*
X105621428Y-83709047D01*
X105621428Y-83328095D01*
X105716666Y-83137619D01*
X105907142Y-83042380D01*
X106097619Y-83042380D01*
X106288095Y-83994761D01*
X104859523Y-80756666D02*
X107430952Y-82470952D01*
X106954761Y-79232857D02*
X105907142Y-79232857D01*
X105716666Y-79328095D01*
X105621428Y-79518571D01*
X105621428Y-79899523D01*
X105716666Y-80090000D01*
X106859523Y-79232857D02*
X106954761Y-79423333D01*
X106954761Y-79899523D01*
X106859523Y-80090000D01*
X106669047Y-80185238D01*
X106478571Y-80185238D01*
X106288095Y-80090000D01*
X106192857Y-79899523D01*
X106192857Y-79423333D01*
X106097619Y-79232857D01*
X104859523Y-76851904D02*
X107430952Y-78566190D01*
X106954761Y-76185238D02*
X105621428Y-76185238D01*
X105811904Y-76185238D02*
X105716666Y-76090000D01*
X105621428Y-75899523D01*
X105621428Y-75613809D01*
X105716666Y-75423333D01*
X105907142Y-75328095D01*
X106954761Y-75328095D01*
X105907142Y-75328095D02*
X105716666Y-75232857D01*
X105621428Y-75042380D01*
X105621428Y-74756666D01*
X105716666Y-74566190D01*
X105907142Y-74470952D01*
X106954761Y-74470952D01*
X106954761Y-72661428D02*
X105907142Y-72661428D01*
X105716666Y-72756666D01*
X105621428Y-72947142D01*
X105621428Y-73328095D01*
X105716666Y-73518571D01*
X106859523Y-72661428D02*
X106954761Y-72851904D01*
X106954761Y-73328095D01*
X106859523Y-73518571D01*
X106669047Y-73613809D01*
X106478571Y-73613809D01*
X106288095Y-73518571D01*
X106192857Y-73328095D01*
X106192857Y-72851904D01*
X106097619Y-72661428D01*
X106859523Y-70851904D02*
X106954761Y-71042380D01*
X106954761Y-71423333D01*
X106859523Y-71613809D01*
X106764285Y-71709047D01*
X106573809Y-71804285D01*
X106002380Y-71804285D01*
X105811904Y-71709047D01*
X105716666Y-71613809D01*
X105621428Y-71423333D01*
X105621428Y-71042380D01*
X105716666Y-70851904D01*
X106954761Y-69994761D02*
X105621428Y-69994761D01*
X106002380Y-69994761D02*
X105811904Y-69899523D01*
X105716666Y-69804285D01*
X105621428Y-69613809D01*
X105621428Y-69423333D01*
X106954761Y-68470952D02*
X106859523Y-68661428D01*
X106764285Y-68756666D01*
X106573809Y-68851904D01*
X106002380Y-68851904D01*
X105811904Y-68756666D01*
X105716666Y-68661428D01*
X105621428Y-68470952D01*
X105621428Y-68185238D01*
X105716666Y-67994761D01*
X105811904Y-67899523D01*
X106002380Y-67804285D01*
X106573809Y-67804285D01*
X106764285Y-67899523D01*
X106859523Y-67994761D01*
X106954761Y-68185238D01*
X106954761Y-68470952D01*
X106192857Y-66947142D02*
X106192857Y-65423333D01*
X106954761Y-64470952D02*
X104954761Y-64470952D01*
X106192857Y-64280476D02*
X106954761Y-63709047D01*
X105621428Y-63709047D02*
X106383333Y-64470952D01*
X106859523Y-62090000D02*
X106954761Y-62280476D01*
X106954761Y-62661428D01*
X106859523Y-62851904D01*
X106669047Y-62947142D01*
X105907142Y-62947142D01*
X105716666Y-62851904D01*
X105621428Y-62661428D01*
X105621428Y-62280476D01*
X105716666Y-62090000D01*
X105907142Y-61994761D01*
X106097619Y-61994761D01*
X106288095Y-62947142D01*
X105621428Y-61328095D02*
X106954761Y-60851904D01*
X105621428Y-60375714D02*
X106954761Y-60851904D01*
X107430952Y-61042380D01*
X107526190Y-61137619D01*
X107621428Y-61328095D01*
X106954761Y-59613809D02*
X104954761Y-59613809D01*
X105716666Y-59613809D02*
X105621428Y-59423333D01*
X105621428Y-59042380D01*
X105716666Y-58851904D01*
X105811904Y-58756666D01*
X106002380Y-58661428D01*
X106573809Y-58661428D01*
X106764285Y-58756666D01*
X106859523Y-58851904D01*
X106954761Y-59042380D01*
X106954761Y-59423333D01*
X106859523Y-59613809D01*
X106954761Y-57518571D02*
X106859523Y-57709047D01*
X106764285Y-57804285D01*
X106573809Y-57899523D01*
X106002380Y-57899523D01*
X105811904Y-57804285D01*
X105716666Y-57709047D01*
X105621428Y-57518571D01*
X105621428Y-57232857D01*
X105716666Y-57042380D01*
X105811904Y-56947142D01*
X106002380Y-56851904D01*
X106573809Y-56851904D01*
X106764285Y-56947142D01*
X106859523Y-57042380D01*
X106954761Y-57232857D01*
X106954761Y-57518571D01*
X106954761Y-55137619D02*
X105907142Y-55137619D01*
X105716666Y-55232857D01*
X105621428Y-55423333D01*
X105621428Y-55804285D01*
X105716666Y-55994761D01*
X106859523Y-55137619D02*
X106954761Y-55328095D01*
X106954761Y-55804285D01*
X106859523Y-55994761D01*
X106669047Y-56090000D01*
X106478571Y-56090000D01*
X106288095Y-55994761D01*
X106192857Y-55804285D01*
X106192857Y-55328095D01*
X106097619Y-55137619D01*
X106954761Y-54185238D02*
X105621428Y-54185238D01*
X106002380Y-54185238D02*
X105811904Y-54090000D01*
X105716666Y-53994761D01*
X105621428Y-53804285D01*
X105621428Y-53613809D01*
X106954761Y-52090000D02*
X104954761Y-52090000D01*
X106859523Y-52090000D02*
X106954761Y-52280476D01*
X106954761Y-52661428D01*
X106859523Y-52851904D01*
X106764285Y-52947142D01*
X106573809Y-53042380D01*
X106002380Y-53042380D01*
X105811904Y-52947142D01*
X105716666Y-52851904D01*
X105621428Y-52661428D01*
X105621428Y-52280476D01*
X105716666Y-52090000D01*
X97051069Y-139407829D02*
X96551069Y-140273854D01*
X96344873Y-140154807D01*
X96244964Y-140042139D01*
X96210105Y-139912041D01*
X96216484Y-139805753D01*
X96270483Y-139616986D01*
X96341912Y-139493268D01*
X96478389Y-139352120D01*
X96567248Y-139293451D01*
X96697345Y-139258592D01*
X96844873Y-139288781D01*
X97051069Y-139407829D01*
X95773902Y-139715185D02*
X95708853Y-139732615D01*
X95602565Y-139726235D01*
X95396369Y-139607187D01*
X95337700Y-139518329D01*
X95320270Y-139453280D01*
X95326650Y-139346992D01*
X95374269Y-139264514D01*
X95486936Y-139164605D01*
X96267522Y-138955448D01*
X95731411Y-138645924D01*
X101355266Y-144248688D02*
X100489240Y-144748688D01*
X100370192Y-144542492D01*
X100340003Y-144394964D01*
X100374863Y-144264867D01*
X100433532Y-144176008D01*
X100574680Y-144039531D01*
X100698397Y-143968102D01*
X100887164Y-143914104D01*
X100993452Y-143907724D01*
X101123550Y-143942583D01*
X101236218Y-144042492D01*
X101355266Y-144248688D01*
X100036859Y-143965141D02*
X99727335Y-143429030D01*
X100223916Y-143527229D01*
X100152488Y-143403512D01*
X100146108Y-143297223D01*
X100163538Y-143232175D01*
X100222207Y-143143316D01*
X100428404Y-143024269D01*
X100534692Y-143017889D01*
X100599740Y-143035319D01*
X100688599Y-143093988D01*
X100831456Y-143341424D01*
X100837836Y-143447712D01*
X100820406Y-143512761D01*
X102662380Y-150593095D02*
X101662380Y-150593095D01*
X101662380Y-150355000D01*
X101710000Y-150212142D01*
X101805238Y-150116904D01*
X101900476Y-150069285D01*
X102090952Y-150021666D01*
X102233809Y-150021666D01*
X102424285Y-150069285D01*
X102519523Y-150116904D01*
X102614761Y-150212142D01*
X102662380Y-150355000D01*
X102662380Y-150593095D01*
X101995714Y-149164523D02*
X102662380Y-149164523D01*
X101614761Y-149402619D02*
X102329047Y-149640714D01*
X102329047Y-149021666D01*
X100622170Y-156741069D02*
X99756145Y-156241069D01*
X99875192Y-156034873D01*
X99987860Y-155934964D01*
X100117958Y-155900105D01*
X100224246Y-155906484D01*
X100413013Y-155960483D01*
X100536731Y-156031912D01*
X100677879Y-156168389D01*
X100736548Y-156257248D01*
X100771407Y-156387345D01*
X100741218Y-156534873D01*
X100622170Y-156741069D01*
X100494240Y-154962651D02*
X100256145Y-155375044D01*
X100644728Y-155654378D01*
X100627299Y-155589330D01*
X100633678Y-155483041D01*
X100752726Y-155276845D01*
X100841584Y-155218176D01*
X100906633Y-155200746D01*
X101012921Y-155207126D01*
X101219118Y-155326173D01*
X101277787Y-155415032D01*
X101295217Y-155480081D01*
X101288837Y-155586369D01*
X101169789Y-155792565D01*
X101080931Y-155851234D01*
X101015882Y-155868664D01*
X95781311Y-161045266D02*
X95281311Y-160179240D01*
X95487507Y-160060192D01*
X95635035Y-160030003D01*
X95765132Y-160064863D01*
X95853991Y-160123532D01*
X95990468Y-160264680D01*
X96061897Y-160388397D01*
X96115895Y-160577164D01*
X96122275Y-160683452D01*
X96087416Y-160813550D01*
X95987507Y-160926218D01*
X95781311Y-161045266D01*
X96518490Y-159464954D02*
X96353533Y-159560192D01*
X96294864Y-159649051D01*
X96277434Y-159714100D01*
X96266384Y-159885437D01*
X96320383Y-160074203D01*
X96510859Y-160404118D01*
X96599717Y-160462787D01*
X96664766Y-160480217D01*
X96771054Y-160473837D01*
X96936011Y-160378599D01*
X96994680Y-160289740D01*
X97012110Y-160224692D01*
X97005730Y-160118404D01*
X96886683Y-159912207D01*
X96797824Y-159853538D01*
X96732776Y-159836108D01*
X96626487Y-159842488D01*
X96461530Y-159937726D01*
X96402861Y-160026584D01*
X96385431Y-160091633D01*
X96391811Y-160197921D01*
X89436904Y-162352380D02*
X89436904Y-161352380D01*
X89675000Y-161352380D01*
X89817857Y-161400000D01*
X89913095Y-161495238D01*
X89960714Y-161590476D01*
X90008333Y-161780952D01*
X90008333Y-161923809D01*
X89960714Y-162114285D01*
X89913095Y-162209523D01*
X89817857Y-162304761D01*
X89675000Y-162352380D01*
X89436904Y-162352380D01*
X90341666Y-161352380D02*
X91008333Y-161352380D01*
X90579761Y-162352380D01*
X85019729Y-160266719D02*
X84519729Y-161132744D01*
X84313533Y-161013697D01*
X84213624Y-160901029D01*
X84178765Y-160770931D01*
X84185144Y-160664643D01*
X84239143Y-160475876D01*
X84310572Y-160352158D01*
X84447049Y-160211010D01*
X84535908Y-160152341D01*
X84666005Y-160117482D01*
X84813533Y-160147671D01*
X85019729Y-160266719D01*
X83744272Y-160190162D02*
X83802941Y-160279020D01*
X83820370Y-160344069D01*
X83813991Y-160450357D01*
X83790181Y-160491596D01*
X83701323Y-160550266D01*
X83636274Y-160567695D01*
X83529986Y-160561316D01*
X83365029Y-160466077D01*
X83306360Y-160377219D01*
X83288930Y-160312170D01*
X83295310Y-160205882D01*
X83319119Y-160164643D01*
X83407977Y-160105974D01*
X83473026Y-160088544D01*
X83579314Y-160094924D01*
X83744272Y-160190162D01*
X83850560Y-160196542D01*
X83915609Y-160179112D01*
X84004467Y-160120443D01*
X84099705Y-159955485D01*
X84106085Y-159849197D01*
X84088655Y-159784149D01*
X84029986Y-159695290D01*
X83865029Y-159600052D01*
X83758741Y-159593672D01*
X83693692Y-159611102D01*
X83604833Y-159669771D01*
X83509595Y-159834728D01*
X83503216Y-159941017D01*
X83520645Y-160006065D01*
X83579314Y-160094924D01*
X80506376Y-156297348D02*
X79640350Y-156797348D01*
X79521302Y-156591152D01*
X79491113Y-156443624D01*
X79525973Y-156313527D01*
X79584642Y-156224668D01*
X79725790Y-156088191D01*
X79849507Y-156016762D01*
X80038274Y-155962764D01*
X80144562Y-155956384D01*
X80274660Y-155991243D01*
X80387328Y-156091152D01*
X80506376Y-156297348D01*
X79982566Y-155390084D02*
X79887328Y-155225126D01*
X79798470Y-155166457D01*
X79733421Y-155149027D01*
X79562084Y-155137977D01*
X79373317Y-155191976D01*
X79043403Y-155382452D01*
X78984733Y-155471311D01*
X78967304Y-155536360D01*
X78973683Y-155642648D01*
X79068922Y-155807605D01*
X79157780Y-155866274D01*
X79222829Y-155883704D01*
X79329117Y-155877324D01*
X79535313Y-155758276D01*
X79593982Y-155669418D01*
X79611412Y-155604369D01*
X79605033Y-155498081D01*
X79509794Y-155333124D01*
X79420936Y-155274455D01*
X79355887Y-155257025D01*
X79249599Y-155263405D01*
X78582380Y-151079285D02*
X77582380Y-151079285D01*
X77582380Y-150841190D01*
X77630000Y-150698333D01*
X77725238Y-150603095D01*
X77820476Y-150555476D01*
X78010952Y-150507857D01*
X78153809Y-150507857D01*
X78344285Y-150555476D01*
X78439523Y-150603095D01*
X78534761Y-150698333D01*
X78582380Y-150841190D01*
X78582380Y-151079285D01*
X78582380Y-149555476D02*
X78582380Y-150126904D01*
X78582380Y-149841190D02*
X77582380Y-149841190D01*
X77725238Y-149936428D01*
X77820476Y-150031666D01*
X77868095Y-150126904D01*
X77582380Y-148936428D02*
X77582380Y-148841190D01*
X77630000Y-148745952D01*
X77677619Y-148698333D01*
X77772857Y-148650714D01*
X77963333Y-148603095D01*
X78201428Y-148603095D01*
X78391904Y-148650714D01*
X78487142Y-148698333D01*
X78534761Y-148745952D01*
X78582380Y-148841190D01*
X78582380Y-148936428D01*
X78534761Y-149031666D01*
X78487142Y-149079285D01*
X78391904Y-149126904D01*
X78201428Y-149174523D01*
X77963333Y-149174523D01*
X77772857Y-149126904D01*
X77677619Y-149079285D01*
X77630000Y-149031666D01*
X77582380Y-148936428D01*
X79525185Y-145122122D02*
X78659160Y-144622122D01*
X78778207Y-144415926D01*
X78890875Y-144316017D01*
X79020973Y-144281158D01*
X79127261Y-144287538D01*
X79316028Y-144341536D01*
X79439746Y-144412965D01*
X79580893Y-144549442D01*
X79639562Y-144638301D01*
X79674422Y-144768398D01*
X79644233Y-144915926D01*
X79525185Y-145122122D01*
X80287090Y-143802464D02*
X80001376Y-144297336D01*
X80144233Y-144049900D02*
X79278207Y-143549900D01*
X79354306Y-143703808D01*
X79389166Y-143833905D01*
X79382786Y-143940193D01*
X80763280Y-142977678D02*
X80477566Y-143472550D01*
X80620423Y-143225114D02*
X79754398Y-142725114D01*
X79830497Y-142879021D01*
X79865356Y-143009119D01*
X79858976Y-143115407D01*
X83320258Y-140434471D02*
X82820258Y-139568445D01*
X83026454Y-139449398D01*
X83173982Y-139419208D01*
X83304079Y-139454068D01*
X83392938Y-139512737D01*
X83529415Y-139653885D01*
X83600844Y-139777603D01*
X83654842Y-139966369D01*
X83661222Y-140072658D01*
X83626363Y-140202755D01*
X83526454Y-140315423D01*
X83320258Y-140434471D01*
X84639915Y-139672566D02*
X84145044Y-139958280D01*
X84392480Y-139815423D02*
X83892480Y-138949398D01*
X83881430Y-139120735D01*
X83846570Y-139250832D01*
X83787901Y-139339691D01*
X84517449Y-138698543D02*
X84534879Y-138633494D01*
X84593548Y-138544636D01*
X84799744Y-138425588D01*
X84906032Y-138419208D01*
X84971081Y-138436638D01*
X85059940Y-138495307D01*
X85107559Y-138577786D01*
X85137748Y-138725313D01*
X84928591Y-139505899D01*
X85464702Y-139196376D01*
X89426904Y-138272380D02*
X89426904Y-137272380D01*
X89665000Y-137272380D01*
X89807857Y-137320000D01*
X89903095Y-137415238D01*
X89950714Y-137510476D01*
X89998333Y-137700952D01*
X89998333Y-137843809D01*
X89950714Y-138034285D01*
X89903095Y-138129523D01*
X89807857Y-138224761D01*
X89665000Y-138272380D01*
X89426904Y-138272380D01*
X90950714Y-138272380D02*
X90379285Y-138272380D01*
X90665000Y-138272380D02*
X90665000Y-137272380D01*
X90569761Y-137415238D01*
X90474523Y-137510476D01*
X90379285Y-137558095D01*
X76717619Y-123912380D02*
X76955714Y-124912380D01*
X77146190Y-124198095D01*
X77336666Y-124912380D01*
X77574761Y-123912380D01*
X78384285Y-124912380D02*
X78384285Y-124388571D01*
X78336666Y-124293333D01*
X78241428Y-124245714D01*
X78050952Y-124245714D01*
X77955714Y-124293333D01*
X78384285Y-124864761D02*
X78289047Y-124912380D01*
X78050952Y-124912380D01*
X77955714Y-124864761D01*
X77908095Y-124769523D01*
X77908095Y-124674285D01*
X77955714Y-124579047D01*
X78050952Y-124531428D01*
X78289047Y-124531428D01*
X78384285Y-124483809D01*
X78765238Y-124245714D02*
X79003333Y-124912380D01*
X79241428Y-124245714D01*
X80003333Y-124864761D02*
X79908095Y-124912380D01*
X79717619Y-124912380D01*
X79622380Y-124864761D01*
X79574761Y-124769523D01*
X79574761Y-124388571D01*
X79622380Y-124293333D01*
X79717619Y-124245714D01*
X79908095Y-124245714D01*
X80003333Y-124293333D01*
X80050952Y-124388571D01*
X80050952Y-124483809D01*
X79574761Y-124579047D01*
X80431904Y-124864761D02*
X80527142Y-124912380D01*
X80717619Y-124912380D01*
X80812857Y-124864761D01*
X80860476Y-124769523D01*
X80860476Y-124721904D01*
X80812857Y-124626666D01*
X80717619Y-124579047D01*
X80574761Y-124579047D01*
X80479523Y-124531428D01*
X80431904Y-124436190D01*
X80431904Y-124388571D01*
X80479523Y-124293333D01*
X80574761Y-124245714D01*
X80717619Y-124245714D01*
X80812857Y-124293333D01*
X81289047Y-124912380D02*
X81289047Y-123912380D01*
X81717619Y-124912380D02*
X81717619Y-124388571D01*
X81670000Y-124293333D01*
X81574761Y-124245714D01*
X81431904Y-124245714D01*
X81336666Y-124293333D01*
X81289047Y-124340952D01*
X82622380Y-124912380D02*
X82622380Y-124388571D01*
X82574761Y-124293333D01*
X82479523Y-124245714D01*
X82289047Y-124245714D01*
X82193809Y-124293333D01*
X82622380Y-124864761D02*
X82527142Y-124912380D01*
X82289047Y-124912380D01*
X82193809Y-124864761D01*
X82146190Y-124769523D01*
X82146190Y-124674285D01*
X82193809Y-124579047D01*
X82289047Y-124531428D01*
X82527142Y-124531428D01*
X82622380Y-124483809D01*
X83098571Y-124912380D02*
X83098571Y-124245714D01*
X83098571Y-124436190D02*
X83146190Y-124340952D01*
X83193809Y-124293333D01*
X83289047Y-124245714D01*
X83384285Y-124245714D01*
X84098571Y-124864761D02*
X84003333Y-124912380D01*
X83812857Y-124912380D01*
X83717619Y-124864761D01*
X83670000Y-124769523D01*
X83670000Y-124388571D01*
X83717619Y-124293333D01*
X83812857Y-124245714D01*
X84003333Y-124245714D01*
X84098571Y-124293333D01*
X84146190Y-124388571D01*
X84146190Y-124483809D01*
X83670000Y-124579047D01*
X85289047Y-124007619D02*
X85336666Y-123960000D01*
X85431904Y-123912380D01*
X85670000Y-123912380D01*
X85765238Y-123960000D01*
X85812857Y-124007619D01*
X85860476Y-124102857D01*
X85860476Y-124198095D01*
X85812857Y-124340952D01*
X85241428Y-124912380D01*
X85860476Y-124912380D01*
X86289047Y-124817142D02*
X86336666Y-124864761D01*
X86289047Y-124912380D01*
X86241428Y-124864761D01*
X86289047Y-124817142D01*
X86289047Y-124912380D01*
X86812857Y-124912380D02*
X87003333Y-124912380D01*
X87098571Y-124864761D01*
X87146190Y-124817142D01*
X87241428Y-124674285D01*
X87289047Y-124483809D01*
X87289047Y-124102857D01*
X87241428Y-124007619D01*
X87193809Y-123960000D01*
X87098571Y-123912380D01*
X86908095Y-123912380D01*
X86812857Y-123960000D01*
X86765238Y-124007619D01*
X86717619Y-124102857D01*
X86717619Y-124340952D01*
X86765238Y-124436190D01*
X86812857Y-124483809D01*
X86908095Y-124531428D01*
X87098571Y-124531428D01*
X87193809Y-124483809D01*
X87241428Y-124436190D01*
X87289047Y-124340952D01*
X87717619Y-124912380D02*
X87717619Y-124245714D01*
X87717619Y-123912380D02*
X87670000Y-123960000D01*
X87717619Y-124007619D01*
X87765238Y-123960000D01*
X87717619Y-123912380D01*
X87717619Y-124007619D01*
X88193809Y-124245714D02*
X88193809Y-124912380D01*
X88193809Y-124340952D02*
X88241428Y-124293333D01*
X88336666Y-124245714D01*
X88479523Y-124245714D01*
X88574761Y-124293333D01*
X88622380Y-124388571D01*
X88622380Y-124912380D01*
X89527142Y-124864761D02*
X89431904Y-124912380D01*
X89241428Y-124912380D01*
X89146190Y-124864761D01*
X89098571Y-124817142D01*
X89050952Y-124721904D01*
X89050952Y-124436190D01*
X89098571Y-124340952D01*
X89146190Y-124293333D01*
X89241428Y-124245714D01*
X89431904Y-124245714D01*
X89527142Y-124293333D01*
X89955714Y-124912380D02*
X89955714Y-123912380D01*
X90384285Y-124912380D02*
X90384285Y-124388571D01*
X90336666Y-124293333D01*
X90241428Y-124245714D01*
X90098571Y-124245714D01*
X90003333Y-124293333D01*
X89955714Y-124340952D01*
X92003333Y-124864761D02*
X91908095Y-124912380D01*
X91717619Y-124912380D01*
X91622380Y-124864761D01*
X91574761Y-124769523D01*
X91574761Y-124388571D01*
X91622380Y-124293333D01*
X91717619Y-124245714D01*
X91908095Y-124245714D01*
X92003333Y-124293333D01*
X92050952Y-124388571D01*
X92050952Y-124483809D01*
X91574761Y-124579047D01*
X92479523Y-124531428D02*
X93241428Y-124531428D01*
X93717619Y-124912380D02*
X93717619Y-123912380D01*
X94098571Y-123912380D01*
X94193809Y-123960000D01*
X94241428Y-124007619D01*
X94289047Y-124102857D01*
X94289047Y-124245714D01*
X94241428Y-124340952D01*
X94193809Y-124388571D01*
X94098571Y-124436190D01*
X93717619Y-124436190D01*
X95146190Y-124912380D02*
X95146190Y-124388571D01*
X95098571Y-124293333D01*
X95003333Y-124245714D01*
X94812857Y-124245714D01*
X94717619Y-124293333D01*
X95146190Y-124864761D02*
X95050952Y-124912380D01*
X94812857Y-124912380D01*
X94717619Y-124864761D01*
X94670000Y-124769523D01*
X94670000Y-124674285D01*
X94717619Y-124579047D01*
X94812857Y-124531428D01*
X95050952Y-124531428D01*
X95146190Y-124483809D01*
X95622380Y-124245714D02*
X95622380Y-125245714D01*
X95622380Y-124293333D02*
X95717619Y-124245714D01*
X95908095Y-124245714D01*
X96003333Y-124293333D01*
X96050952Y-124340952D01*
X96098571Y-124436190D01*
X96098571Y-124721904D01*
X96050952Y-124817142D01*
X96003333Y-124864761D01*
X95908095Y-124912380D01*
X95717619Y-124912380D01*
X95622380Y-124864761D01*
X96908095Y-124864761D02*
X96812857Y-124912380D01*
X96622380Y-124912380D01*
X96527142Y-124864761D01*
X96479523Y-124769523D01*
X96479523Y-124388571D01*
X96527142Y-124293333D01*
X96622380Y-124245714D01*
X96812857Y-124245714D01*
X96908095Y-124293333D01*
X96955714Y-124388571D01*
X96955714Y-124483809D01*
X96479523Y-124579047D01*
X97384285Y-124912380D02*
X97384285Y-124245714D01*
X97384285Y-124436190D02*
X97431904Y-124340952D01*
X97479523Y-124293333D01*
X97574761Y-124245714D01*
X97670000Y-124245714D01*
X98765238Y-124912380D02*
X98765238Y-123912380D01*
X99098571Y-124626666D01*
X99431904Y-123912380D01*
X99431904Y-124912380D01*
X100050952Y-124912380D02*
X99955714Y-124864761D01*
X99908095Y-124817142D01*
X99860476Y-124721904D01*
X99860476Y-124436190D01*
X99908095Y-124340952D01*
X99955714Y-124293333D01*
X100050952Y-124245714D01*
X100193809Y-124245714D01*
X100289047Y-124293333D01*
X100336666Y-124340952D01*
X100384285Y-124436190D01*
X100384285Y-124721904D01*
X100336666Y-124817142D01*
X100289047Y-124864761D01*
X100193809Y-124912380D01*
X100050952Y-124912380D01*
X101241428Y-124912380D02*
X101241428Y-123912380D01*
X101241428Y-124864761D02*
X101146190Y-124912380D01*
X100955714Y-124912380D01*
X100860476Y-124864761D01*
X100812857Y-124817142D01*
X100765238Y-124721904D01*
X100765238Y-124436190D01*
X100812857Y-124340952D01*
X100860476Y-124293333D01*
X100955714Y-124245714D01*
X101146190Y-124245714D01*
X101241428Y-124293333D01*
X102146190Y-124245714D02*
X102146190Y-124912380D01*
X101717619Y-124245714D02*
X101717619Y-124769523D01*
X101765238Y-124864761D01*
X101860476Y-124912380D01*
X102003333Y-124912380D01*
X102098571Y-124864761D01*
X102146190Y-124817142D01*
X102765238Y-124912380D02*
X102670000Y-124864761D01*
X102622380Y-124769523D01*
X102622380Y-123912380D01*
X103527142Y-124864761D02*
X103431904Y-124912380D01*
X103241428Y-124912380D01*
X103146190Y-124864761D01*
X103098571Y-124769523D01*
X103098571Y-124388571D01*
X103146190Y-124293333D01*
X103241428Y-124245714D01*
X103431904Y-124245714D01*
X103527142Y-124293333D01*
X103574761Y-124388571D01*
X103574761Y-124483809D01*
X103098571Y-124579047D01*
X60896666Y-66698761D02*
X61039523Y-66746380D01*
X61277619Y-66746380D01*
X61372857Y-66698761D01*
X61420476Y-66651142D01*
X61468095Y-66555904D01*
X61468095Y-66460666D01*
X61420476Y-66365428D01*
X61372857Y-66317809D01*
X61277619Y-66270190D01*
X61087142Y-66222571D01*
X60991904Y-66174952D01*
X60944285Y-66127333D01*
X60896666Y-66032095D01*
X60896666Y-65936857D01*
X60944285Y-65841619D01*
X60991904Y-65794000D01*
X61087142Y-65746380D01*
X61325238Y-65746380D01*
X61468095Y-65794000D01*
X61801428Y-65746380D02*
X62039523Y-66746380D01*
X62230000Y-66032095D01*
X62420476Y-66746380D01*
X62658571Y-65746380D01*
X62991904Y-65841619D02*
X63039523Y-65794000D01*
X63134761Y-65746380D01*
X63372857Y-65746380D01*
X63468095Y-65794000D01*
X63515714Y-65841619D01*
X63563333Y-65936857D01*
X63563333Y-66032095D01*
X63515714Y-66174952D01*
X62944285Y-66746380D01*
X63563333Y-66746380D01*
X60896666Y-84478761D02*
X61039523Y-84526380D01*
X61277619Y-84526380D01*
X61372857Y-84478761D01*
X61420476Y-84431142D01*
X61468095Y-84335904D01*
X61468095Y-84240666D01*
X61420476Y-84145428D01*
X61372857Y-84097809D01*
X61277619Y-84050190D01*
X61087142Y-84002571D01*
X60991904Y-83954952D01*
X60944285Y-83907333D01*
X60896666Y-83812095D01*
X60896666Y-83716857D01*
X60944285Y-83621619D01*
X60991904Y-83574000D01*
X61087142Y-83526380D01*
X61325238Y-83526380D01*
X61468095Y-83574000D01*
X61801428Y-83526380D02*
X62039523Y-84526380D01*
X62230000Y-83812095D01*
X62420476Y-84526380D01*
X62658571Y-83526380D01*
X62944285Y-83526380D02*
X63563333Y-83526380D01*
X63230000Y-83907333D01*
X63372857Y-83907333D01*
X63468095Y-83954952D01*
X63515714Y-84002571D01*
X63563333Y-84097809D01*
X63563333Y-84335904D01*
X63515714Y-84431142D01*
X63468095Y-84478761D01*
X63372857Y-84526380D01*
X63087142Y-84526380D01*
X62991904Y-84478761D01*
X62944285Y-84431142D01*
X60896666Y-102258761D02*
X61039523Y-102306380D01*
X61277619Y-102306380D01*
X61372857Y-102258761D01*
X61420476Y-102211142D01*
X61468095Y-102115904D01*
X61468095Y-102020666D01*
X61420476Y-101925428D01*
X61372857Y-101877809D01*
X61277619Y-101830190D01*
X61087142Y-101782571D01*
X60991904Y-101734952D01*
X60944285Y-101687333D01*
X60896666Y-101592095D01*
X60896666Y-101496857D01*
X60944285Y-101401619D01*
X60991904Y-101354000D01*
X61087142Y-101306380D01*
X61325238Y-101306380D01*
X61468095Y-101354000D01*
X61801428Y-101306380D02*
X62039523Y-102306380D01*
X62230000Y-101592095D01*
X62420476Y-102306380D01*
X62658571Y-101306380D01*
X63468095Y-101639714D02*
X63468095Y-102306380D01*
X63230000Y-101258761D02*
X62991904Y-101973047D01*
X63610952Y-101973047D01*
X60896666Y-120038761D02*
X61039523Y-120086380D01*
X61277619Y-120086380D01*
X61372857Y-120038761D01*
X61420476Y-119991142D01*
X61468095Y-119895904D01*
X61468095Y-119800666D01*
X61420476Y-119705428D01*
X61372857Y-119657809D01*
X61277619Y-119610190D01*
X61087142Y-119562571D01*
X60991904Y-119514952D01*
X60944285Y-119467333D01*
X60896666Y-119372095D01*
X60896666Y-119276857D01*
X60944285Y-119181619D01*
X60991904Y-119134000D01*
X61087142Y-119086380D01*
X61325238Y-119086380D01*
X61468095Y-119134000D01*
X61801428Y-119086380D02*
X62039523Y-120086380D01*
X62230000Y-119372095D01*
X62420476Y-120086380D01*
X62658571Y-119086380D01*
X63515714Y-119086380D02*
X63039523Y-119086380D01*
X62991904Y-119562571D01*
X63039523Y-119514952D01*
X63134761Y-119467333D01*
X63372857Y-119467333D01*
X63468095Y-119514952D01*
X63515714Y-119562571D01*
X63563333Y-119657809D01*
X63563333Y-119895904D01*
X63515714Y-119991142D01*
X63468095Y-120038761D01*
X63372857Y-120086380D01*
X63134761Y-120086380D01*
X63039523Y-120038761D01*
X62991904Y-119991142D01*
X116776666Y-66698761D02*
X116919523Y-66746380D01*
X117157619Y-66746380D01*
X117252857Y-66698761D01*
X117300476Y-66651142D01*
X117348095Y-66555904D01*
X117348095Y-66460666D01*
X117300476Y-66365428D01*
X117252857Y-66317809D01*
X117157619Y-66270190D01*
X116967142Y-66222571D01*
X116871904Y-66174952D01*
X116824285Y-66127333D01*
X116776666Y-66032095D01*
X116776666Y-65936857D01*
X116824285Y-65841619D01*
X116871904Y-65794000D01*
X116967142Y-65746380D01*
X117205238Y-65746380D01*
X117348095Y-65794000D01*
X117681428Y-65746380D02*
X117919523Y-66746380D01*
X118110000Y-66032095D01*
X118300476Y-66746380D01*
X118538571Y-65746380D01*
X119348095Y-65746380D02*
X119157619Y-65746380D01*
X119062380Y-65794000D01*
X119014761Y-65841619D01*
X118919523Y-65984476D01*
X118871904Y-66174952D01*
X118871904Y-66555904D01*
X118919523Y-66651142D01*
X118967142Y-66698761D01*
X119062380Y-66746380D01*
X119252857Y-66746380D01*
X119348095Y-66698761D01*
X119395714Y-66651142D01*
X119443333Y-66555904D01*
X119443333Y-66317809D01*
X119395714Y-66222571D01*
X119348095Y-66174952D01*
X119252857Y-66127333D01*
X119062380Y-66127333D01*
X118967142Y-66174952D01*
X118919523Y-66222571D01*
X118871904Y-66317809D01*
X116776666Y-84478761D02*
X116919523Y-84526380D01*
X117157619Y-84526380D01*
X117252857Y-84478761D01*
X117300476Y-84431142D01*
X117348095Y-84335904D01*
X117348095Y-84240666D01*
X117300476Y-84145428D01*
X117252857Y-84097809D01*
X117157619Y-84050190D01*
X116967142Y-84002571D01*
X116871904Y-83954952D01*
X116824285Y-83907333D01*
X116776666Y-83812095D01*
X116776666Y-83716857D01*
X116824285Y-83621619D01*
X116871904Y-83574000D01*
X116967142Y-83526380D01*
X117205238Y-83526380D01*
X117348095Y-83574000D01*
X117681428Y-83526380D02*
X117919523Y-84526380D01*
X118110000Y-83812095D01*
X118300476Y-84526380D01*
X118538571Y-83526380D01*
X118824285Y-83526380D02*
X119490952Y-83526380D01*
X119062380Y-84526380D01*
X116776666Y-102258761D02*
X116919523Y-102306380D01*
X117157619Y-102306380D01*
X117252857Y-102258761D01*
X117300476Y-102211142D01*
X117348095Y-102115904D01*
X117348095Y-102020666D01*
X117300476Y-101925428D01*
X117252857Y-101877809D01*
X117157619Y-101830190D01*
X116967142Y-101782571D01*
X116871904Y-101734952D01*
X116824285Y-101687333D01*
X116776666Y-101592095D01*
X116776666Y-101496857D01*
X116824285Y-101401619D01*
X116871904Y-101354000D01*
X116967142Y-101306380D01*
X117205238Y-101306380D01*
X117348095Y-101354000D01*
X117681428Y-101306380D02*
X117919523Y-102306380D01*
X118110000Y-101592095D01*
X118300476Y-102306380D01*
X118538571Y-101306380D01*
X119062380Y-101734952D02*
X118967142Y-101687333D01*
X118919523Y-101639714D01*
X118871904Y-101544476D01*
X118871904Y-101496857D01*
X118919523Y-101401619D01*
X118967142Y-101354000D01*
X119062380Y-101306380D01*
X119252857Y-101306380D01*
X119348095Y-101354000D01*
X119395714Y-101401619D01*
X119443333Y-101496857D01*
X119443333Y-101544476D01*
X119395714Y-101639714D01*
X119348095Y-101687333D01*
X119252857Y-101734952D01*
X119062380Y-101734952D01*
X118967142Y-101782571D01*
X118919523Y-101830190D01*
X118871904Y-101925428D01*
X118871904Y-102115904D01*
X118919523Y-102211142D01*
X118967142Y-102258761D01*
X119062380Y-102306380D01*
X119252857Y-102306380D01*
X119348095Y-102258761D01*
X119395714Y-102211142D01*
X119443333Y-102115904D01*
X119443333Y-101925428D01*
X119395714Y-101830190D01*
X119348095Y-101782571D01*
X119252857Y-101734952D01*
X116776666Y-120038761D02*
X116919523Y-120086380D01*
X117157619Y-120086380D01*
X117252857Y-120038761D01*
X117300476Y-119991142D01*
X117348095Y-119895904D01*
X117348095Y-119800666D01*
X117300476Y-119705428D01*
X117252857Y-119657809D01*
X117157619Y-119610190D01*
X116967142Y-119562571D01*
X116871904Y-119514952D01*
X116824285Y-119467333D01*
X116776666Y-119372095D01*
X116776666Y-119276857D01*
X116824285Y-119181619D01*
X116871904Y-119134000D01*
X116967142Y-119086380D01*
X117205238Y-119086380D01*
X117348095Y-119134000D01*
X117681428Y-119086380D02*
X117919523Y-120086380D01*
X118110000Y-119372095D01*
X118300476Y-120086380D01*
X118538571Y-119086380D01*
X118967142Y-120086380D02*
X119157619Y-120086380D01*
X119252857Y-120038761D01*
X119300476Y-119991142D01*
X119395714Y-119848285D01*
X119443333Y-119657809D01*
X119443333Y-119276857D01*
X119395714Y-119181619D01*
X119348095Y-119134000D01*
X119252857Y-119086380D01*
X119062380Y-119086380D01*
X118967142Y-119134000D01*
X118919523Y-119181619D01*
X118871904Y-119276857D01*
X118871904Y-119514952D01*
X118919523Y-119610190D01*
X118967142Y-119657809D01*
X119062380Y-119705428D01*
X119252857Y-119705428D01*
X119348095Y-119657809D01*
X119395714Y-119610190D01*
X119443333Y-119514952D01*
X84016666Y-143024761D02*
X84159523Y-143072380D01*
X84397619Y-143072380D01*
X84492857Y-143024761D01*
X84540476Y-142977142D01*
X84588095Y-142881904D01*
X84588095Y-142786666D01*
X84540476Y-142691428D01*
X84492857Y-142643809D01*
X84397619Y-142596190D01*
X84207142Y-142548571D01*
X84111904Y-142500952D01*
X84064285Y-142453333D01*
X84016666Y-142358095D01*
X84016666Y-142262857D01*
X84064285Y-142167619D01*
X84111904Y-142120000D01*
X84207142Y-142072380D01*
X84445238Y-142072380D01*
X84588095Y-142120000D01*
X84921428Y-142072380D02*
X85159523Y-143072380D01*
X85350000Y-142358095D01*
X85540476Y-143072380D01*
X85778571Y-142072380D01*
X86683333Y-143072380D02*
X86111904Y-143072380D01*
X86397619Y-143072380D02*
X86397619Y-142072380D01*
X86302380Y-142215238D01*
X86207142Y-142310476D01*
X86111904Y-142358095D01*
D11*
X100922695Y-136345787D02*
X101155195Y-135943085D01*
X99610195Y-138619103D02*
X99842695Y-138216401D01*
X100658284Y-136193129D02*
G75*
G03*
X96753448Y-133938176I-2492614J192035D01*
G01*
X95673021Y-135809533D02*
G75*
G03*
X99578283Y-138063743I2492649J-191561D01*
G01*
X101155110Y-135943232D02*
G75*
G03*
X96291764Y-133671163I-2989440J-57862D01*
G01*
X95210938Y-135543210D02*
G75*
G03*
X99610280Y-138618956I2954732J-457884D01*
G01*
X106239213Y-143532695D02*
X106641915Y-143300195D01*
X103965897Y-144845195D02*
X104368599Y-144612695D01*
X106086556Y-143268284D02*
G75*
G03*
X103832345Y-139363019I-2062650J1412614D01*
G01*
X101960989Y-140443449D02*
G75*
G03*
X104215941Y-144348283I2062917J-1412221D01*
G01*
X106641769Y-143300281D02*
G75*
G03*
X103566022Y-138900937I-2617863J1444611D01*
G01*
X101693975Y-139981764D02*
G75*
G03*
X103966044Y-144845110I2329931J-1873906D01*
G01*
X107250000Y-152415000D02*
X107715000Y-152415000D01*
X104625000Y-152415000D02*
X105090000Y-152415000D01*
X107250000Y-152109684D02*
G75*
G03*
X107250429Y-147600521I-1080000J2254684D01*
G01*
X105089571Y-147600521D02*
G75*
G03*
X105090000Y-152109684I1080429J-2254479D01*
G01*
X107714830Y-152415000D02*
G75*
G03*
X107250827Y-147067185I-1544830J2560000D01*
G01*
X105089173Y-147067185D02*
G75*
G03*
X104625170Y-152415000I1080827J-2787815D01*
G01*
X103684213Y-160612695D02*
X104086915Y-160845195D01*
X101410897Y-159300195D02*
X101813599Y-159532695D01*
X103836871Y-160348284D02*
G75*
G03*
X106091824Y-156443448I192035J2492614D01*
G01*
X104220467Y-155363021D02*
G75*
G03*
X101966257Y-159268283I-191561J-2492649D01*
G01*
X104086768Y-160845110D02*
G75*
G03*
X106358837Y-155981764I-57862J2989440D01*
G01*
X104486790Y-154900938D02*
G75*
G03*
X101411044Y-159300280I-457884J-2954732D01*
G01*
X96497305Y-165929213D02*
X96729805Y-166331915D01*
X95184805Y-163655897D02*
X95417305Y-164058599D01*
X96761716Y-165776556D02*
G75*
G03*
X100666981Y-163522345I1412614J2062650D01*
G01*
X99586551Y-161650989D02*
G75*
G03*
X95681717Y-163905941I-1412221J-2062917D01*
G01*
X96729719Y-166331769D02*
G75*
G03*
X101129063Y-163256022I1444611J2617863D01*
G01*
X100048236Y-161383975D02*
G75*
G03*
X95184890Y-163656044I-1873906J-2329931D01*
G01*
X87615000Y-166940000D02*
X87615000Y-167405000D01*
X87615000Y-164315000D02*
X87615000Y-164780000D01*
X87920316Y-166940000D02*
G75*
G03*
X92429479Y-166940429I2254684J1080000D01*
G01*
X92429479Y-164779571D02*
G75*
G03*
X87920316Y-164780000I-2254479J-1080429D01*
G01*
X87615000Y-167404830D02*
G75*
G03*
X92962815Y-166940827I2560000J1544830D01*
G01*
X92962815Y-164779173D02*
G75*
G03*
X87615000Y-164315170I-2787815J-1080827D01*
G01*
X79417305Y-163374213D02*
X79184805Y-163776915D01*
X80729805Y-161100897D02*
X80497305Y-161503599D01*
X79681716Y-163526871D02*
G75*
G03*
X83586552Y-165781824I2492614J-192035D01*
G01*
X84666979Y-163910467D02*
G75*
G03*
X80761717Y-161656257I-2492649J191561D01*
G01*
X79184890Y-163776768D02*
G75*
G03*
X84048236Y-166048837I2989440J57862D01*
G01*
X85129062Y-164176790D02*
G75*
G03*
X80729720Y-161101044I-2954732J457884D01*
G01*
X74100787Y-156187305D02*
X73698085Y-156419805D01*
X76374103Y-154874805D02*
X75971401Y-155107305D01*
X74253444Y-156451716D02*
G75*
G03*
X76507655Y-160356981I2062650J-1412614D01*
G01*
X78379011Y-159276551D02*
G75*
G03*
X76124059Y-155371717I-2062917J1412221D01*
G01*
X73698231Y-156419719D02*
G75*
G03*
X76773978Y-160819063I2617863J-1444611D01*
G01*
X78646025Y-159738236D02*
G75*
G03*
X76373956Y-154874890I-2329931J1873906D01*
G01*
X73090000Y-147305000D02*
X72625000Y-147305000D01*
X75715000Y-147305000D02*
X75250000Y-147305000D01*
X73090000Y-147610316D02*
G75*
G03*
X73089571Y-152119479I1080000J-2254684D01*
G01*
X75250429Y-152119479D02*
G75*
G03*
X75250000Y-147610316I-1080429J2254479D01*
G01*
X72625170Y-147305000D02*
G75*
G03*
X73089173Y-152652815I1544830J-2560000D01*
G01*
X75250827Y-152652815D02*
G75*
G03*
X75714830Y-147305000I-1080827J2787815D01*
G01*
X76655787Y-139107305D02*
X76253085Y-138874805D01*
X78929103Y-140419805D02*
X78526401Y-140187305D01*
X76503129Y-139371716D02*
G75*
G03*
X74248176Y-143276552I-192035J-2492614D01*
G01*
X76119533Y-144356979D02*
G75*
G03*
X78373743Y-140451717I191561J2492649D01*
G01*
X76253232Y-138874890D02*
G75*
G03*
X73981163Y-143738236I57862J-2989440D01*
G01*
X75853210Y-144819062D02*
G75*
G03*
X78928956Y-140419720I457884J2954732D01*
G01*
X83842695Y-133790787D02*
X83610195Y-133388085D01*
X85155195Y-136064103D02*
X84922695Y-135661401D01*
X83578284Y-133943444D02*
G75*
G03*
X79673019Y-136197655I-1412614J-2062650D01*
G01*
X80753449Y-138069011D02*
G75*
G03*
X84658283Y-135814059I1412221J2062917D01*
G01*
X83610281Y-133388231D02*
G75*
G03*
X79210937Y-136463978I-1444611J-2617863D01*
G01*
X80291764Y-138336025D02*
G75*
G03*
X85155110Y-136063956I1873906J2329931D01*
G01*
X92725000Y-132780000D02*
X92725000Y-132315000D01*
X92725000Y-135405000D02*
X92725000Y-134940000D01*
X92419684Y-132780000D02*
G75*
G03*
X87910521Y-132779571I-2254684J-1080000D01*
G01*
X87910521Y-134940429D02*
G75*
G03*
X92419684Y-134940000I2254479J1080429D01*
G01*
X92725000Y-132315170D02*
G75*
G03*
X87377185Y-132779173I-2560000J-1544830D01*
G01*
X87377185Y-134940827D02*
G75*
G03*
X92725000Y-135404830I2787815J1080827D01*
G01*
X71170000Y-36530000D02*
X71170000Y-126030000D01*
X109170000Y-36530000D02*
X109170000Y-126030000D01*
X71170000Y-126030000D02*
X109170000Y-126030000D01*
X71170000Y-36530000D02*
X109170000Y-36530000D01*
X71820000Y-41780000D02*
X71820000Y-120780000D01*
X108520000Y-41780000D02*
X108520000Y-120780000D01*
X71820000Y-41780000D02*
X108520000Y-41780000D01*
X71820000Y-120780000D02*
X108520000Y-120780000D01*
X75620000Y-117780000D02*
X104720000Y-117780000D01*
X75620000Y-50930000D02*
X104720000Y-50930000D01*
X75620000Y-50930000D02*
X75620000Y-117780000D01*
X104720000Y-117780000D02*
X104720000Y-50930000D01*
X69215000Y-51435000D02*
X69215000Y-65405000D01*
X55245000Y-51435000D02*
X69215000Y-51435000D01*
X55245000Y-65405000D02*
X55245000Y-51435000D01*
X69215000Y-65405000D02*
X55245000Y-65405000D01*
X69215000Y-83185000D02*
X55245000Y-83185000D01*
X55245000Y-83185000D02*
X55245000Y-69215000D01*
X55245000Y-69215000D02*
X69215000Y-69215000D01*
X69215000Y-69215000D02*
X69215000Y-83185000D01*
X69215000Y-100965000D02*
X55245000Y-100965000D01*
X55245000Y-100965000D02*
X55245000Y-86995000D01*
X55245000Y-86995000D02*
X69215000Y-86995000D01*
X69215000Y-86995000D02*
X69215000Y-100965000D01*
X69215000Y-104775000D02*
X69215000Y-118745000D01*
X55245000Y-104775000D02*
X69215000Y-104775000D01*
X55245000Y-118745000D02*
X55245000Y-104775000D01*
X69215000Y-118745000D02*
X55245000Y-118745000D01*
X125095000Y-65405000D02*
X111125000Y-65405000D01*
X111125000Y-65405000D02*
X111125000Y-51435000D01*
X111125000Y-51435000D02*
X125095000Y-51435000D01*
X125095000Y-51435000D02*
X125095000Y-65405000D01*
X125095000Y-69215000D02*
X125095000Y-83185000D01*
X111125000Y-69215000D02*
X125095000Y-69215000D01*
X111125000Y-83185000D02*
X111125000Y-69215000D01*
X125095000Y-83185000D02*
X111125000Y-83185000D01*
X125095000Y-100965000D02*
X111125000Y-100965000D01*
X111125000Y-100965000D02*
X111125000Y-86995000D01*
X111125000Y-86995000D02*
X125095000Y-86995000D01*
X125095000Y-86995000D02*
X125095000Y-100965000D01*
X125095000Y-104775000D02*
X125095000Y-118745000D01*
X111125000Y-104775000D02*
X125095000Y-104775000D01*
X111125000Y-118745000D02*
X111125000Y-104775000D01*
X125095000Y-118745000D02*
X111125000Y-118745000D01*
X89550000Y-149820000D02*
X90550000Y-149820000D01*
X90050000Y-149320000D02*
X90050000Y-150320000D01*
X96150000Y-153320000D02*
X96150000Y-155720000D01*
X96150000Y-148520000D02*
X96150000Y-151120000D01*
X96150000Y-143920000D02*
X96150000Y-146320000D01*
X82850000Y-145720000D02*
X82550000Y-146020000D01*
X82250000Y-145720000D02*
X82850000Y-145720000D01*
X82550000Y-146020000D02*
X82250000Y-145720000D01*
X83950000Y-143920000D02*
X83950000Y-155720000D01*
X88050000Y-143920000D02*
X83950000Y-143920000D01*
X88050000Y-155720000D02*
X83950000Y-155720000D01*
X96150000Y-155720000D02*
X92050000Y-155720000D01*
X92050000Y-143920000D02*
X96150000Y-143920000D01*
X93050000Y-149820000D02*
G75*
G03*
X93050000Y-149820000I-3000000J0D01*
G01*
M02*
